PathFileType  4	(X/Y/Z) C:\Users\antoi\Documents\MyRepositories\mobilecap\ResultsAnalysis
DataRate	CameraRate	NumFrames	NumMarkers	Units	OrigDataRate	OrigDataStartFrame	OrigNumFrames
100.0	100.0	5	51	mm	100.0	1164	1861
Frame#	Time	r_knee			r_shank_antsup			r_ankle			r_calc			r_5meta			r_toe			L_knee			L_shank_antsup			L_ankle			L_calc			L_5meta			L_toe			r_sh2			r_sh3			r_sh4			L_sh2			L_sh3			r_thigh1			r_thigh2			r_thigh3			r_thigh4			r_thigh5			L_thigh1			L_thigh2			L_thigh3			L_thigh4			r.ASIS			r.PSIS			L.ASIS			L.PSIS			C7			R_Shoulder			L_Shoulder			R_Sternum			L_Sternum			R_humerus			R_elbow_med			R_elbow_lat			R_forearm			R_wrist_radius			R_wrist_ulna			L_humerus			L_elbow_med			L_elbow_lat			L_forearm			L_wrist_radius			L_wrist_ulna			R_HJC			L_HJC			R_HJC_reg			L_HJC_reg			
		X1	Y1	Z1	X2	Y2	Z2	X3	Y3	Z3	X4	Y4	Z4	X5	Y5	Z5	X6	Y6	Z6	X7	Y7	Z7	X8	Y8	Z8	X9	Y9	Z9	X10	Y10	Z10	X11	Y11	Z11	X12	Y12	Z12	X13	Y13	Z13	X14	Y14	Z14	X15	Y15	Z15	X16	Y16	Z16	X17	Y17	Z17	X18	Y18	Z18	X19	Y19	Z19	X20	Y20	Z20	X21	Y21	Z21	X22	Y22	Z22	X23	Y23	Z23	X24	Y24	Z24	X25	Y25	Z25	X26	Y26	Z26	X27	Y27	Z27	X28	Y28	Z28	X29	Y29	Z29	X30	Y30	Z30	X31	Y31	Z31	X32	Y32	Z32	X33	Y33	Z33	X34	Y34	Z34	X35	Y35	Z35	X36	Y36	Z36	X37	Y37	Z37	X38	Y38	Z38	X39	Y39	Z39	X40	Y40	Z40	X41	Y41	Z41	X42	Y42	Z42	X43	Y43	Z43	X44	Y44	Z44	X45	Y45	Z45	X46	Y46	Z46	X47	Y47	Z47	X48	Y48	Z48	X49	Y49	Z49	X50	Y50	Z50	X51	Y51	Z51	

1164	11.63000000	-181.05228	451.84365	-406.73062	-121.81119	399.44463	-410.00325	-221.92807	83.67665	-424.99495	-276.75212	55.89493	-471.46898	-115.29880	43.27493	-401.79816	-77.92591	64.10052	-453.68273	-170.21070	456.48295	-781.05551	-111.62107	376.68942	-768.62011	-209.50857	92.59537	-774.48294	-267.70021	54.05293	-731.21663	-108.40903	44.74132	-802.72771	-59.00412	61.92007	-747.85560	-146.49854	289.20794	-405.73537	-191.49318	415.38719	-382.66433	-222.91045	303.32647	-382.03714	-189.32684	401.01951	-806.92927	-208.16825	280.14678	-814.69963	-421.47505	525.31613	-387.00402	-309.10444	518.35477	-389.75803	-314.56605	407.41370	-411.64221	-431.02102	411.48715	-396.02399	-291.58215	448.55361	-386.83838	-442.14549	528.39383	-793.42129	-304.87552	519.68359	-785.49238	-455.44019	415.41541	-796.11102	-318.55309	407.26153	-772.48477	-471.39841	580.47795	-485.69539	-676.95850	586.64170	-557.31401	-475.53438	579.92974	-703.87892	-676.96594	582.48054	-636.65175	-409.57748	985.28545	-592.16450	-355.97410	940.36923	-453.29326	-359.51592	938.39465	-729.29514	-313.76028	885.44598	-574.10380	-319.51544	881.06631	-600.43522	-323.36359	851.08417	-383.45106	-333.60790	635.79775	-335.54407	-301.36393	673.14206	-284.94980	-207.79404	681.16801	-300.95631	-80.48750	655.26175	-345.30601	-78.64914	624.67694	-322.53424	-341.66630	852.30042	-805.75264	-324.82537	628.18971	-827.02293	-304.72474	667.28497	-879.75978	-198.12648	648.33583	-878.66520	-81.20121	610.81166	-850.60318	-91.67419	575.52897	-867.33075	-540.13310	484.65375	-489.30672	-542.31174	485.23931	-696.80081	-535.81621	511.01186	-511.72838	-535.82943	503.46838	-655.55858	
1165	11.64000000	-180.43901	451.85746	-406.52197	-121.17148	399.24336	-409.90729	-221.96617	83.60319	-425.00901	-276.74311	55.86765	-471.41944	-115.27445	43.32797	-401.75472	-77.92688	64.09218	-453.69842	-169.50369	456.36470	-781.38502	-111.01095	376.48628	-768.59411	-209.52236	92.56384	-774.55594	-267.74570	54.13075	-731.09385	-108.39628	44.72594	-802.79492	-59.03641	61.92022	-747.88579	-146.13476	289.09639	-405.57971	-190.89369	415.15167	-382.48848	-222.45730	303.18781	-381.92396	-188.71724	400.96041	-807.11966	-207.75574	280.07813	-814.74800	-421.90491	524.46404	-385.99916	-307.94922	517.91674	-389.74950	-314.03778	407.55515	-411.11553	-430.43061	411.75822	-395.47947	-291.02117	448.75750	-386.55279	-441.39224	528.51865	-793.36425	-304.20510	519.74599	-785.42383	-454.90862	415.69293	-796.38661	-318.08260	407.33737	-772.79055	-469.28411	578.49106	-486.89712	-674.14042	589.00732	-557.34356	-472.91374	578.76956	-704.01254	-674.48641	584.82225	-636.73335	-398.15400	981.50456	-592.22390	-344.94551	935.82797	-453.24640	-348.76880	933.75893	-729.05166	-303.89559	879.94966	-574.55129	-309.90860	875.76816	-600.04421	-313.70251	846.17117	-383.55333	-327.40437	631.14780	-335.05113	-294.27303	668.42559	-284.36210	-200.70105	675.25920	-300.94660	-74.03366	647.88188	-346.04869	-72.40068	617.25825	-323.38141	-331.88317	847.92942	-805.94443	-318.13218	623.63888	-828.11985	-297.37538	662.80206	-880.80199	-190.97828	642.38773	-879.18630	-74.64338	603.34512	-850.75987	-85.47527	568.29513	-867.67426	-539.40011	484.05476	-490.00894	-541.79452	485.32412	-697.49776	-534.59382	511.11059	-512.54898	-535.21589	503.56617	-655.66594	
1166	11.65000000	-179.64375	451.85731	-406.27465	-120.51158	399.09382	-409.76666	-221.98005	83.55785	-425.01702	-276.75188	55.83407	-471.39650	-115.27456	43.31660	-401.73912	-77.93933	64.13499	-453.74841	-168.98546	456.37885	-782.12457	-110.44524	376.33845	-768.65111	-209.55583	92.48826	-774.54740	-267.93920	54.16655	-731.01618	-108.41503	44.68704	-802.81459	-59.06790	61.93171	-747.90724	-145.58785	288.98443	-405.49879	-190.19577	414.83291	-382.53537	-221.95054	302.98682	-381.74508	-187.99635	400.91498	-807.38113	-207.39003	279.95659	-814.75985	-421.78060	524.17794	-385.25908	-306.42718	517.40578	-390.48925	-313.55040	407.61780	-410.67469	-429.85850	412.00765	-395.08764	-290.43057	449.11329	-386.10602	-440.60122	528.60061	-793.18583	-303.46612	519.76294	-785.39096	-454.37896	415.90826	-796.53835	-317.51250	407.45270	-773.14314	-466.95199	576.82502	-487.37582	-671.18234	591.33815	-557.13654	-470.23605	577.39993	-703.85607	-671.73944	587.12641	-636.81167	-386.60361	977.30149	-592.39815	-333.69434	930.99124	-453.16617	-337.92751	928.67487	-728.82344	-293.86534	874.16646	-574.97574	-300.05524	870.09744	-599.55166	-303.88173	840.95835	-383.76195	-320.82961	626.56043	-334.24120	-287.04292	663.41577	-283.88622	-193.46004	669.22539	-300.94325	-67.36872	640.47324	-346.90616	-65.88094	609.92807	-324.12785	-321.97001	843.33631	-806.11712	-311.16701	619.13718	-829.96482	-289.74090	658.15822	-881.68236	-183.48011	636.45697	-879.86368	-67.69280	595.96598	-850.95580	-78.86203	561.33077	-868.72309	-538.57105	483.74720	-490.15163	-540.98527	485.24332	-697.63950	-533.22769	511.04993	-512.81364	-534.22656	503.50803	-655.50502	
1167	11.66000000	-178.83865	451.72152	-406.18060	-119.88466	398.91155	-409.65930	-221.96151	83.56066	-424.98900	-276.79497	55.79913	-471.41720	-115.29631	43.27604	-401.73610	-77.94715	64.16681	-453.75720	-168.62778	456.53735	-783.09578	-109.92087	376.14397	-768.73515	-209.59738	92.39294	-774.51804	-267.92583	53.96347	-731.24624	-108.43661	44.65648	-802.83577	-59.06299	61.92945	-747.89183	-144.96561	288.75889	-405.57214	-189.45238	414.61361	-382.53728	-221.40656	302.70863	-381.60297	-187.29129	400.79894	-807.50481	-207.00186	279.76825	-814.78721	-420.98491	524.39992	-385.09413	-305.25002	517.14871	-390.99938	-313.06788	407.69042	-410.34776	-429.33251	412.19258	-394.75410	-289.78989	449.40392	-385.61409	-439.78047	528.69092	-792.85245	-302.68912	519.71019	-785.16981	-453.85666	416.10622	-796.57979	-316.87714	407.53171	-773.34871	-464.27846	575.58449	-486.66219	-668.11349	593.71436	-556.95885	-467.56304	575.97299	-703.84665	-668.70389	589.39805	-636.83357	-374.86603	972.76110	-592.59245	-322.48807	925.62618	-453.57419	-326.93880	923.25162	-728.64160	-283.92265	867.86236	-575.45662	-290.43274	864.09089	-599.66113	-293.91005	835.50403	-383.82317	-314.04858	621.87221	-333.39319	-279.59827	658.27379	-283.23078	-186.02946	663.07623	-300.97124	-60.52113	633.04019	-347.88675	-59.07172	602.69528	-324.87268	-311.82858	838.45469	-806.19360	-303.66303	614.48385	-831.87882	-281.54427	653.43863	-882.73989	-175.46576	630.55823	-880.52906	-60.23605	588.63177	-851.03346	-71.80754	554.51149	-869.94724	-537.60003	483.81914	-489.78678	-539.81713	485.10695	-697.27834	-531.79038	510.82080	-512.16241	-532.84893	503.08572	-655.30774	
1168	11.67000000	-178.25302	451.49220	-406.19159	-119.30445	398.68225	-409.59104	-221.97877	83.50953	-424.96265	-276.83495	55.75242	-471.47091	-115.29163	43.27482	-401.72844	-77.94758	64.16641	-453.73772	-168.08560	456.49771	-783.49179	-109.38797	375.86294	-768.73246	-209.63157	92.31179	-774.51257	-267.67170	53.66823	-731.57747	-108.44359	44.63341	-802.86232	-59.05684	61.93129	-747.90208	-144.51491	288.45124	-405.71316	-188.81728	414.69211	-382.29322	-220.87440	302.37365	-381.51811	-186.69759	400.57531	-807.42438	-206.50329	279.51564	-814.74351	-420.06792	524.60761	-385.25748	-304.52399	517.14280	-390.89683	-312.51523	407.72317	-410.20604	-428.81318	412.32440	-394.40952	-289.16108	449.36132	-385.38659	-438.92671	528.84088	-792.52871	-301.93305	519.62314	-784.77644	-453.26117	416.43613	-796.74641	-316.27305	407.51585	-773.32525	-461.42811	574.29695	-485.72962	-664.97958	596.15938	-556.97065	-464.79816	574.65858	-704.35326	-665.53868	591.70050	-636.77790	-362.90688	967.89158	-592.80201	-311.32491	919.67785	-454.48654	-315.84290	917.57742	-728.41919	-274.11218	861.03097	-575.94239	-281.05954	857.71658	-600.39066	-283.74650	829.84453	-383.81405	-307.10465	616.99972	-332.35570	-271.79404	652.91127	-282.60061	-178.24338	656.78796	-301.08889	-53.48671	625.66641	-348.95597	-52.04173	595.49806	-325.74061	-301.42555	833.20939	-806.21719	-295.51406	609.37636	-833.25743	-272.64471	648.58629	-884.19182	-166.91723	624.63661	-881.15911	-52.24173	581.38579	-851.09217	-64.09694	547.52327	-870.25066	-536.49591	483.89414	-489.59768	-538.58236	485.10532	-697.09102	-530.37127	510.55281	-511.41830	-531.38056	502.50164	-655.49887	
